PathFileType	4	(X/Y/Z)	../Python\walking\Walking08\task.trc
DataRate	CameraRate	NumFrames	NumMarkers	Units	OrigDataRate	OrigDataStartFrame	OrigNumFrames
200.000000	200.000000	4	30	mm	200.000000	375	501
Frame#	Time	CLAV			STRN			RASI			LPSI			LASI			RTH1			RTH2			RTH3			RTB1			RTB2			RTB3			RHEE			RD5M			RTOE			LTB1			LTB2			LTB3			LTOE			LD5M			RPSI			LTH2			LTH1			PE03			T10			LTH3			PE01			PE02			C7			RBAK			LHEE			
		X1	Y1	Z1	X2	Y2	Z2	X3	Y3	Z3	X4	Y4	Z4	X5	Y5	Z5	X6	Y6	Z6	X7	Y7	Z7	X8	Y8	Z8	X9	Y9	Z9	X10	Y10	Z10	X11	Y11	Z11	X12	Y12	Z12	X13	Y13	Z13	X14	Y14	Z14	X15	Y15	Z15	X16	Y16	Z16	X17	Y17	Z17	X18	Y18	Z18	X19	Y19	Z19	X20	Y20	Z20	X21	Y21	Z21	X22	Y22	Z22	X23	Y23	Z23	X24	Y24	Z24	X25	Y25	Z25	X26	Y26	Z26	X27	Y27	Z27	X28	Y28	Z28	X29	Y29	Z29	X30	Y30	Z30	

376	1.875	2053.325195312501	1408.5966796875	194.8097229003907	2096.175292968751	1212.044799804688	207.9654998779298	2046.404907226563	1008.521057128907	353.8770141601564	1912.804809570313	1048.411254882813	135.4713134765626	2095.432861328126	996.459594726563	79.92281341552737	1950.977661132813	752.501892089844	372.8460693359376	1889.941894531251	744.1202392578127	363.8562927246095	1899.062377929688	696.9619140625002	348.3979492187501	1805.341430664063	370.1991271972657	277.7652282714845	1750.111083984376	342.8929748535157	273.8686828613282	1772.538208007813	299.2147827148439	261.8963317871095	1606.096069335938	69.88507080078128	158.8624420166016	1750.818969726563	19.02128219604493	248.5448608398439	1815.400268554688	30.53010177612306	208.715789794922	2233.279785156251	357.8903808593751	77.44446563720706	2225.060058593751	311.3230285644532	90.83679962158206	2285.848388671876	299.674530029297	85.44768524169925	2521.528076171876	125.2857360839844	151.9062957763672	2497.551757812501	85.52638244628909	117.8238220214844	1898.850097656251	1052.24560546875	234.3708953857423	2080.379882812501	644.1345214843752	58.69000244140628	2089.211914062501	688.3001098632815	37.04244613647462	1902.770141601563	1037.015014648438	160.3939666748047	1868.305419921876	1248.81884765625	187.414535522461	2138.622070312501	627.8411254882815	49.46960449218753	1913.044189453126	1097.631958007813	183.9482727050782	1897.488281250001	1039.118041992188	211.1335906982423	1937.526367187501	1498.740234375	179.0765991210938	1914.160888671876	1421.011596679688	356.2257080078126	2334.908203125001	41.09648513793947	171.029769897461	
377	1.88	2060.534179687501	1407.91357421875	194.8333282470704	2103.615478515626	1211.37255859375	208.1224517822267	2054.123535156251	1007.673767089844	354.1633300781251	1920.460449218751	1047.642700195313	135.5756988525391	2103.194091796876	995.8940429687505	79.91535186767581	1957.268798828126	752.1500244140627	373.3108215332032	1896.201171875001	744.1655273437502	364.009490966797	1905.072631835938	696.909606933594	348.699432373047	1809.115112304688	370.6986083984376	278.2306518554689	1753.596069335938	344.0113525390626	274.3427124023439	1775.588867187501	300.0521850585939	262.4325256347657	1606.781738281251	72.56691741943362	159.5714721679688	1750.880615234376	19.03001022338868	248.6178436279298	1815.464111328126	30.51030158996583	208.8374023437501	2239.858642578126	357.1685791015626	78.71540832519534	2231.468505859376	310.7733764648439	92.5768966674805	2292.081298828126	298.5776367187501	86.65965270996097	2526.962402343751	123.3477401733399	153.3572082519532	2502.745361328126	83.54164123535159	119.524528503418	1906.564208984376	1051.371948242188	234.4692687988282	2088.043212890626	643.962585449219	59.4308776855469	2096.709228515626	688.0729980468752	37.6257781982422	1910.447875976563	1036.242553710938	160.4901428222657	1875.735473632813	1247.906005859375	187.4134674072266	2146.292724609376	627.8118896484377	49.94123458862308	1920.688232421876	1096.841796875	184.1023712158204	1905.219360351563	1038.28271484375	211.2306518554689	1944.584594726563	1497.900390625	179.0106353759766	1921.201660156251	1420.133666992188	356.172088623047	2339.926025390626	40.15066146850587	173.0474853515626	
378	1.885	2067.770263671876	1407.29150390625	194.8303680419923	2111.129638671876	1210.7841796875	208.2541961669923	2061.966796875001	1006.843933105469	354.422576904297	1928.194335937501	1046.940795898438	135.7251892089844	2111.017578125001	995.4102172851567	79.8840026855469	1963.714233398438	751.8205566406252	373.7653808593751	1902.620971679688	744.224792480469	364.1704711914064	1911.248535156251	696.872009277344	348.9994201660157	1813.020263671876	371.233856201172	278.7455139160157	1757.211914062501	345.1771240234376	274.8703002929689	1778.756591796876	300.9382324218751	263.0242004394532	1607.540527343751	75.38761138916018	160.3601226806641	1750.951171875001	19.02680397033692	248.7079620361329	1815.532592773438	30.49866867065431	208.9678802490236	2246.197998046876	356.4371643066407	80.02539825439456	2237.536621093751	310.2496032714845	94.35968017578128	2297.940673828126	297.3452453613282	87.86970520019534	2531.587646484376	120.7827835083008	154.7865447998047	2507.028808593751	81.04249572753909	121.1709747314454	1914.386230468751	1050.55517578125	234.6151733398439	2096.080322265626	643.960876464844	60.12828445434573	2104.543701171876	688.020690917969	38.17989349365236	1918.213012695313	1035.534790039063	160.6302032470704	1883.238769531251	1247.010498046875	187.4162902832032	2154.363037109376	627.9970703125002	50.34921646118167	1928.422851562501	1096.113525390625	184.3064880371094	1913.049926757813	1037.504516601563	211.3729095458986	1951.655395507813	1497.091918945313	178.9200439453126	1928.267211914063	1419.294799804688	356.092498779297	2343.973632812501	38.9731788635254	174.9513549804688	
379	1.89	2075.032714843751	1406.732177734375	194.8012237548829	2118.719238281251	1210.282470703125	208.3607940673829	2069.934326171876	1006.031127929688	354.6533203125001	1936.010498046876	1046.308349609375	135.9170837402344	2118.908203125001	995.0083618164067	79.83303070068362	1970.321899414063	751.5088500976565	374.207244873047	1909.209350585938	744.2907714843752	364.3391113281251	1917.600585937501	696.8422851562502	349.2968750000001	1817.068115234376	371.8002929687501	279.3115844726564	1760.970581054688	346.385711669922	275.4505615234376	1782.051757812501	301.8690795898439	263.6730346679689	1608.383178710938	78.34819030761722	161.2248077392579	1751.029052734376	19.01013946533204	248.8140106201173	1815.605102539063	30.49483489990236	209.1066436767579	2252.311523437501	355.6896057128907	81.36383819580081	2243.281005859376	309.7416076660157	96.14679718017584	2303.448974609376	295.9973144531251	89.08135986328128	2535.460449218751	117.6363067626954	156.2174377441407	2510.471923828126	78.070182800293	122.7814407348633	1922.317749023438	1049.798217773438	234.8064270019532	2104.451660156251	644.096618652344	60.78166580200198	2112.688476562501	688.1065673828127	38.69708633422853	1926.068603515626	1034.894775390625	160.8118743896485	1890.816284179688	1246.132934570313	187.4241790771485	2162.787841796876	628.343200683594	50.69813156127933	1936.250732421876	1095.449829101563	184.5586547851563	1920.981933593751	1036.786376953125	211.5581207275392	1958.738891601563	1496.316162109375	178.8054199218751	1935.357666015626	1418.49658203125	355.9875793457032	2347.125732421876	37.58631134033205	176.7317962646485	
